<?xml version="1.0" encoding="utf-8"?>
<!-- Generator: Adobe Illustrator 22.0.1, SVG Export Plug-In . SVG Version: 6.00 Build 0)  -->
<svg version="1.0" id="图层_1" xmlns="http://www.w3.org/2000/svg" xmlns:xlink="http://www.w3.org/1999/xlink" x="0px" y="0px"
	 viewBox="0 0 100 100" style="enable-background:new 0 0 100 100;" xml:space="preserve">
<style type="text/css">
	.st0{fill:#FFFFFF;}
</style>
<path class="st0" d="M80,73.8v2.8c0,3.3-2.7,6-6,6H26c-3.3,0-6-2.7-6-6v-2.8c0-7.3,8.5-11.7,16.5-15.2c0.3-0.1,0.5-0.2,0.8-0.4
	c0.6-0.3,1.3-0.3,1.9,0.1c3.2,2.1,6.9,3.3,10.8,3.3s7.6-1.2,10.8-3.2c0.6-0.4,1.3-0.4,1.9-0.1c0.3,0.1,0.5,0.2,0.8,0.4
	C71.5,62.1,80,66.5,80,73.8z"/>
<ellipse class="st0" cx="50" cy="38.7" rx="14.9" ry="16.5"/>
<path class="st0" d="M31.5,29.3v-5.2c0-2.1,1.8-3.7,4-3.7h4.4v-3h-4.4c-3.9,0-7.1,3-7.1,6.7v5.2H31.5z"/>
<path class="st0" d="M60.1,20.3h4.4c2.2,0,4,1.7,4,3.7v5.2h3.2v-5.2c0-3.7-3.2-6.7-7.1-6.7h-4.4V20.3z"/>
<path class="st0" d="M39.9,55h-4.4c-2.2,0-4-1.7-4-3.7v-3.1h-3.2v3.1c0,3.7,3.2,6.7,7.1,6.7h4.4V55z"/>
<path class="st0" d="M68.5,48.2v3.1c0,2.1-1.8,3.7-4,3.7h-4.4v3h4.4c3.9,0,7.1-3,7.1-6.7v-3.1H68.5z"/>
</svg>
