<?xml version="1.0" standalone="no"?><!DOCTYPE svg PUBLIC "-//W3C//DTD SVG 1.1//EN" "http://www.w3.org/Graphics/SVG/1.1/DTD/svg11.dtd"><svg t="1516849167728" class="icon" style="" viewBox="0 0 1024 1024" version="1.1" xmlns="http://www.w3.org/2000/svg" p-id="5970" xmlns:xlink="http://www.w3.org/1999/xlink" width="200" height="200" fill="#828282"><defs><style type="text/css"></style></defs><path d="M228.41 198.27a21.33 21.33 0 0 0-30.17 30.17l56.46 56.46c-83.6 50.76-150.66 126-189.08 219a21.33 21.33 0 0 0 0 16.33C138.56 696.64 313.78 810.68 512 810.68a496.64 496.64 0 0 0 217.89-50.61l65.69 65.69a21.33 21.33 0 1 0 30.17-30.17z m194.68 255l147.63 147.64a106.5 106.5 0 0 1-147.63-147.63zM512 768c-177.8 0-335.17-100.15-403.49-256 36.81-84 100.12-150.76 178-195.34L392.81 423c-18.68 24.93-30.15 55.54-30.15 89 0 82.33 67 149.33 149.33 149.33 33.47 0 64.08-11.47 89-30.15l96.21 96.21C640.44 752.9 578 768 512 768zM958.37 503.85C885.43 327.39 710.2 213.35 512 213.35a502.15 502.15 0 0 0-157.66 25.45l34.22 34.2A461 461 0 0 1 512 256c177.79 0 335.17 100.17 403.48 256-28.33 64.63-72.59 118.93-126.66 161.23l30.88 30.88C879.76 656 928 593.62 958.37 520.18a21.33 21.33 0 0 0 0-16.33z" p-id="5971"></path><path d="M617.66 502.11l40.47 40.47a149.27 149.27 0 0 0 3.2-30.56c0-82.33-67-149.33-149.33-149.33a149.19 149.19 0 0 0-30.57 3.2l40.47 40.47a106.11 106.11 0 0 1 95.76 95.75z" p-id="5972"></path></svg>
