<?xml version="1.0" standalone="no"?><!DOCTYPE svg PUBLIC "-//W3C//DTD SVG 1.1//EN" "http://www.w3.org/Graphics/SVG/1.1/DTD/svg11.dtd"><svg t="1517285914805" class="icon" style="" viewBox="0 0 1024 1024" version="1.1" xmlns="http://www.w3.org/2000/svg" p-id="2418" xmlns:xlink="http://www.w3.org/1999/xlink" width="200" height="200"><defs><style type="text/css"></style></defs><path d="M597.216847 406.788773 597.381599 432.718329 597.362156 406.788773Z" p-id="2419"></path><path d="M554.140773 95.448886c-12.009522-5.662977-26.243711-4.099365-36.687574 3.966335-0.479931 0.401136-51.280944 39.775912-107.332541 80.122829C312.563762 249.688759 284.138362 261.376962 278.394544 263.228123L169.836083 263.228123c-28.551266 0-53.584406 11.55415-70.579475 32.586163-14.628162 18.056238-22.363334 41.739637-22.363334 68.471464l0 147.551544 0 0.325411 0 147.551544c0 26.731828 7.735172 50.415226 22.363334 68.471464 16.995069 21.030989 42.029232 32.586163 70.579475 32.586163L278.394544 760.771877c5.742794 1.851161 34.168194 13.540388 131.726114 83.690074 56.051597 40.346917 106.85261 79.721693 107.332541 80.122829 10.443863 8.065699 24.678052 9.629311 36.687574 3.966335 11.969613-5.605671 19.577894-17.447371 19.577894-30.470989L573.718667 512.162706l0-0.325411L573.718667 125.919874C573.717643 112.896256 566.109362 101.054557 554.140773 95.448886z" p-id="2420"></path><path d="M947.106726 511.842411c0-0.002047 0-0.004093 0-0.005117l-0.00307 0c-0.060375-44.600801-12.713556-88.034009-36.559661-125.585253-23.333428-36.685527-56.331983-66.316381-95.412047-85.612866-17.060561-8.428973-37.926798-1.774413-46.582945 14.891152-8.656147 16.70445-1.824555 37.048801 15.245216 45.476751 57.94676 28.636201 93.928253 86.473467 93.986581 150.992923-0.059352 64.519456-36.039821 122.356722-93.986581 150.992923-17.070794 8.42795-23.901363 28.7723-15.245216 45.476751 8.655124 16.665565 29.522384 23.320125 46.582945 14.891152 39.080064-19.296485 72.078619-48.927339 95.412047-85.612866 23.845081-37.551244 36.499285-80.984453 36.559661-125.585253l0.00307 0c0-0.002047 0-0.004093 0-0.005117 0-0.052189-0.001023-0.105401-0.001023-0.157589C947.104679 511.947811 947.106726 511.894599 947.106726 511.842411z" p-id="2421"></path><path d="M761.568009 511.837294c-0.848321-24.725124-8.083096-47.943942-20.212344-68.295456-4.315282-10.80202-15.344476-18.48705-28.274974-18.48705-16.688077 0-30.220279 12.797467-30.220279 28.587082 0 8.101515 3.569292 15.409968 9.292644 20.611433 5.429663 11.654434 8.696056 24.381293 9.325389 37.746696-0.629333 13.365402-3.895727 26.092261-9.325389 37.746696-5.723352 5.201465-9.292644 12.509918-9.292644 20.611433 0 15.788591 13.532201 28.587082 30.220279 28.587082 12.930497 0 23.959691-7.68503 28.274974-18.48705 12.129248-20.351514 19.364023-43.570331 20.212344-68.295456l0.01535 0c-0.002047-0.054235-0.00614-0.10847-0.008186-0.162706 0.002047-0.054235 0.00614-0.10847 0.008186-0.162706L761.568009 511.837294z" p-id="2422"></path></svg>
